<?xml version="1.0" encoding="utf-8" standalone="no"?>
<!DOCTYPE svg PUBLIC "-//W3C//DTD SVG 1.1//EN"
  "http://www.w3.org/Graphics/SVG/1.1/DTD/svg11.dtd">
<svg xmlns:xlink="http://www.w3.org/1999/xlink" width="432pt" height="921.6pt" viewBox="0 0 432 921.6" xmlns="http://www.w3.org/2000/svg" version="1.1">
 <metadata>
  <rdf:RDF xmlns:dc="http://purl.org/dc/elements/1.1/" xmlns:cc="http://creativecommons.org/ns#" xmlns:rdf="http://www.w3.org/1999/02/22-rdf-syntax-ns#">
   <cc:Work>
    <dc:type rdf:resource="http://purl.org/dc/dcmitype/StillImage"/>
    <dc:date>2026-08-14T17:52:28.089582</dc:date>
    <dc:format>image/svg+xml</dc:format>
    <dc:creator>
     <cc:Agent>
      <dc:title>Matplotlib v3.10.8, https://matplotlib.org/</dc:title>
     </cc:Agent>
    </dc:creator>
   </cc:Work>
  </rdf:RDF>
 </metadata>
 <defs>
  <style type="text/css">*{stroke-linejoin: round; stroke-linecap: butt}</style>
 </defs>
 <g id="figure_1">
  <g id="patch_1">
   <path d="M 0 921.6 
L 432 921.6 
L 432 0 
L 0 0 
z
" style="fill: #ffffff"/>
  </g>
  <g id="axes_1">
   <g id="patch_2">
    <path d="M 388.445264 206.209897 
L 388.550004 206.210218 
L 388.639172 206.191027 
z
" clip-path="url(#p136025ac5a)" style="fill: #1f77b4; opacity: 0.75"/>
   </g>
   <g id="patch_3">
    <path d="M 390.462798 206.21608 
L 390.428402 206.215974 
L 390.444111 206.23713 
z
" clip-path="url(#p136025ac5a)" style="fill: #aec7e8; opacity: 0.75"/>
   </g>
   <g id="patch_4">
    <path d="M 390.462798 206.21608 
L 390.517805 206.216248 
L 390.505783 206.167657 
z
" clip-path="url(#p136025ac5a)" style="fill: #ff7f0e; opacity: 0.75"/>
   </g>
   <g id="patch_5">
    <path d="M 381.318001 206.188058 
L 384.112045 206.19662 
L 385.009271 206.160951 
z
" clip-path="url(#p136025ac5a)" style="fill: #ffbb78; opacity: 0.75"/>
   </g>
   <g id="patch_6">
    <path d="M 388.550004 206.210218 
L 389.74956 206.213894 
L 29.454545 283.496166 
z
" clip-path="url(#p136025ac5a)" style="fill: #2ca02c; opacity: 0.75"/>
   </g>
   <g id="patch_7">
    <path d="M 390.765172 206.217006 
L 390.781721 206.217057 
L 390.777515 206.206954 
z
" clip-path="url(#p136025ac5a)" style="fill: #98df8a; opacity: 0.75"/>
   </g>
   <g id="patch_8">
    <path d="M 390.765172 206.217006 
L 390.579442 206.216437 
L 390.559441 206.384541 
z
" clip-path="url(#p136025ac5a)" style="fill: #d62728; opacity: 0.75"/>
   </g>
   <g id="patch_9">
    <path d="M 390.215585 206.215322 
L 390.146266 206.21511 
L 390.266947 206.156707 
z
" clip-path="url(#p136025ac5a)" style="fill: #ff9896; opacity: 0.75"/>
   </g>
   <g id="patch_10">
    <path d="M 390.215585 206.215322 
L 390.336781 206.215694 
L 389.946747 206.522127 
z
" clip-path="url(#p136025ac5a)" style="fill: #9467bd; opacity: 0.75"/>
   </g>
   <g id="patch_11">
    <path d="M 391.10008 206.218032 
L 391.057928 206.217903 
L 391.057904 206.198189 
z
" clip-path="url(#p136025ac5a)" style="fill: #c5b0d5; opacity: 0.75"/>
   </g>
   <g id="patch_12">
    <path d="M 389.74956 206.213894 
L 389.812628 206.214087 
L 389.866824 206.188741 
z
" clip-path="url(#p136025ac5a)" style="fill: #8c564b; opacity: 0.75"/>
   </g>
   <g id="patch_13">
    <path d="M 390.428402 206.215974 
L 390.336781 206.215694 
L 390.394514 206.170335 
z
" clip-path="url(#p136025ac5a)" style="fill: #c49c94; opacity: 0.75"/>
   </g>
   <g id="patch_14">
    <path d="M 390.781721 206.217057 
L 391.057928 206.217903 
L 391.058753 206.882606 
z
" clip-path="url(#p136025ac5a)" style="fill: #e377c2; opacity: 0.75"/>
   </g>
   <g id="patch_15">
    <path d="M 390.517805 206.216248 
L 390.579442 206.216437 
L 390.559441 206.384541 
z
" clip-path="url(#p136025ac5a)" style="fill: #f7b6d2; opacity: 0.75"/>
   </g>
   <g id="patch_16">
    <path d="M 390.659576 205.99441 
L 390.630744 205.997216 
L 390.649325 206.005958 
z
" clip-path="url(#p136025ac5a)" style="fill: #7f7f7f; opacity: 0.75"/>
   </g>
   <g id="patch_17">
    <path d="M 390.659576 205.99441 
L 390.687897 205.991654 
L 390.679638 205.971811 
z
" clip-path="url(#p136025ac5a)" style="fill: #c7c7c7; opacity: 0.75"/>
   </g>
   <g id="patch_18">
    <path d="M 389.269737 206.129663 
L 388.639172 206.191027 
L 388.912085 206.13229 
z
" clip-path="url(#p136025ac5a)" style="fill: #bcbd22; opacity: 0.75"/>
   </g>
   <g id="patch_19">
    <path d="M 389.269737 206.129663 
L 390.183234 206.040766 
L 390.004689 206.124266 
z
" clip-path="url(#p136025ac5a)" style="fill: #dbdb8d; opacity: 0.75"/>
   </g>
   <g id="patch_20">
    <path d="M 391.668684 205.896208 
L 391.089947 205.952528 
L 391.132954 205.917506 
z
" clip-path="url(#p136025ac5a)" style="fill: #17becf; opacity: 0.75"/>
   </g>
   <g id="patch_21">
    <path d="M 391.089947 205.952528 
L 391.057602 205.955676 
L 391.057631 205.978845 
z
" clip-path="url(#p136025ac5a)" style="fill: #9edae5; opacity: 0.75"/>
   </g>
   <g id="patch_22">
    <path d="M 390.385814 206.021051 
L 390.290553 206.030322 
L 390.330522 206.084152 
z
" clip-path="url(#p136025ac5a)" style="fill: #1f77b4; opacity: 0.75"/>
   </g>
   <g id="patch_23">
    <path d="M 390.385814 206.021051 
L 390.467545 206.013098 
L 390.451084 205.946564 
z
" clip-path="url(#p136025ac5a)" style="fill: #aec7e8; opacity: 0.75"/>
   </g>
   <g id="patch_24">
    <path d="M 390.630744 205.997216 
L 390.612618 205.99898 
L 390.620811 205.992543 
z
" clip-path="url(#p136025ac5a)" style="fill: #ff7f0e; opacity: 0.75"/>
   </g>
   <g id="patch_25">
    <path d="M 390.866846 205.97424 
L 390.687897 205.991654 
L 390.69591 206.010905 
z
" clip-path="url(#p136025ac5a)" style="fill: #ffbb78; opacity: 0.75"/>
   </g>
   <g id="patch_26">
    <path d="M 390.866846 205.97424 
L 391.057602 205.955676 
L 391.057575 205.933329 
z
" clip-path="url(#p136025ac5a)" style="fill: #2ca02c; opacity: 0.75"/>
   </g>
   <g id="patch_27">
    <path d="M 390.290553 206.030322 
L 390.183234 206.040766 
L 390.268647 206.00082 
z
" clip-path="url(#p136025ac5a)" style="fill: #98df8a; opacity: 0.75"/>
   </g>
   <g id="patch_28">
    <path d="M 390.467545 206.013098 
L 390.587893 206.001386 
L 390.477826 206.054653 
z
" clip-path="url(#p136025ac5a)" style="fill: #d62728; opacity: 0.75"/>
   </g>
   <g id="patch_29">
    <path d="M 390.60523 205.999699 
L 390.587893 206.001386 
L 390.606076 205.992586 
z
" clip-path="url(#p136025ac5a)" style="fill: #ff9896; opacity: 0.75"/>
   </g>
   <g id="patch_30">
    <path d="M 390.60523 205.999699 
L 390.612618 205.99898 
L 390.604562 206.005309 
z
" clip-path="url(#p136025ac5a)" style="fill: #9467bd; opacity: 0.75"/>
   </g>
   <g id="patch_31">
    <path d="M 390.547842 206.120277 
L 390.505783 206.167657 
L 390.494159 206.120672 
z
" clip-path="url(#p136025ac5a)" style="fill: #c5b0d5; opacity: 0.75"/>
   </g>
   <g id="patch_32">
    <path d="M 390.547842 206.120277 
L 390.597545 206.064288 
L 390.590921 206.119961 
z
" clip-path="url(#p136025ac5a)" style="fill: #8c564b; opacity: 0.75"/>
   </g>
   <g id="patch_33">
    <path d="M 390.713025 205.9342 
L 390.702708 205.945822 
L 390.727949 205.933607 
z
" clip-path="url(#p136025ac5a)" style="fill: #c49c94; opacity: 0.75"/>
   </g>
   <g id="patch_34">
    <path d="M 390.713025 205.9342 
L 390.75441 205.88758 
L 390.694114 205.934952 
z
" clip-path="url(#p136025ac5a)" style="fill: #e377c2; opacity: 0.75"/>
   </g>
   <g id="patch_35">
    <path d="M 390.920993 205.699925 
L 390.927348 205.692765 
L 390.904407 205.703495 
z
" clip-path="url(#p136025ac5a)" style="fill: #f7b6d2; opacity: 0.75"/>
   </g>
   <g id="patch_36">
    <path d="M 390.920993 205.699925 
L 390.75441 205.88758 
L 391.020527 205.678503 
z
" clip-path="url(#p136025ac5a)" style="fill: #7f7f7f; opacity: 0.75"/>
   </g>
   <g id="patch_37">
    <path d="M 389.671007 207.10803 
L 371.260044 227.847929 
L 388.841302 207.783693 
z
" clip-path="url(#p136025ac5a)" style="fill: #c7c7c7; opacity: 0.75"/>
   </g>
   <g id="patch_38">
    <path d="M 389.671007 207.10803 
L 390.444111 206.23713 
L 390.55578 206.387523 
z
" clip-path="url(#p136025ac5a)" style="fill: #bcbd22; opacity: 0.75"/>
   </g>
   <g id="patch_39">
    <path d="M 390.649325 206.005958 
L 390.632944 206.024411 
L 390.671135 206.016219 
z
" clip-path="url(#p136025ac5a)" style="fill: #dbdb8d; opacity: 0.75"/>
   </g>
   <g id="patch_40">
    <path d="M 390.632944 206.024411 
L 390.597545 206.064288 
L 390.601487 206.031158 
z
" clip-path="url(#p136025ac5a)" style="fill: #17becf; opacity: 0.75"/>
   </g>
   <g id="patch_41">
    <path d="M 390.679638 205.971811 
L 390.702708 205.945822 
L 390.674502 205.959472 
z
" clip-path="url(#p136025ac5a)" style="fill: #9edae5; opacity: 0.75"/>
   </g>
   <g id="patch_42">
    <path d="M 390.927348 205.692765 
L 391.057095 205.546606 
L 391.057201 205.632037 
z
" clip-path="url(#p136025ac5a)" style="fill: #1f77b4; opacity: 0.75"/>
   </g>
   <g id="patch_43">
    <path d="M 385.009271 206.160951 
L 388.912085 206.13229 
L 389.632976 205.977137 
z
" clip-path="url(#p136025ac5a)" style="fill: #aec7e8; opacity: 0.75"/>
   </g>
   <g id="patch_44">
    <path d="M 390.887012 206.117787 
L 390.740847 206.11886 
L 390.777515 206.206954 
z
" clip-path="url(#p136025ac5a)" style="fill: #ff7f0e; opacity: 0.75"/>
   </g>
   <g id="patch_45">
    <path d="M 390.887012 206.117787 
L 391.057802 206.116532 
L 391.057631 205.978845 
z
" clip-path="url(#p136025ac5a)" style="fill: #ffbb78; opacity: 0.75"/>
   </g>
   <g id="patch_46">
    <path d="M 390.297255 206.122118 
L 390.17318 206.123029 
L 390.32499 206.090466 
z
" clip-path="url(#p136025ac5a)" style="fill: #2ca02c; opacity: 0.75"/>
   </g>
   <g id="patch_47">
    <path d="M 390.297255 206.122118 
L 390.339054 206.121811 
L 390.266947 206.156707 
z
" clip-path="url(#p136025ac5a)" style="fill: #98df8a; opacity: 0.75"/>
   </g>
   <g id="patch_48">
    <path d="M 390.887012 206.117787 
L 390.740847 206.11886 
L 390.704695 206.032009 
z
" clip-path="url(#p136025ac5a)" style="fill: #d62728; opacity: 0.75"/>
   </g>
   <g id="patch_49">
    <path d="M 390.887012 206.117787 
L 391.057802 206.116532 
L 391.057904 206.198189 
z
" clip-path="url(#p136025ac5a)" style="fill: #ff9896; opacity: 0.75"/>
   </g>
   <g id="patch_50">
    <path d="M 390.17318 206.123029 
L 390.004689 206.124266 
L 389.866824 206.188741 
z
" clip-path="url(#p136025ac5a)" style="fill: #9467bd; opacity: 0.75"/>
   </g>
   <g id="patch_51">
    <path d="M 390.358379 206.121669 
L 390.339054 206.121811 
L 390.353348 206.114893 
z
" clip-path="url(#p136025ac5a)" style="fill: #c5b0d5; opacity: 0.75"/>
   </g>
   <g id="patch_52">
    <path d="M 390.358379 206.121669 
L 390.457383 206.120942 
L 390.394514 206.170335 
z
" clip-path="url(#p136025ac5a)" style="fill: #8c564b; opacity: 0.75"/>
   </g>
   <g id="patch_53">
    <path d="M 390.494159 206.120672 
L 390.457383 206.120942 
L 390.48823 206.096707 
z
" clip-path="url(#p136025ac5a)" style="fill: #c49c94; opacity: 0.75"/>
   </g>
   <g id="patch_54">
    <path d="M 389.632976 205.977137 
L 390.23334 205.95327 
L 390.165897 205.862439 
z
" clip-path="url(#p136025ac5a)" style="fill: #e377c2; opacity: 0.75"/>
   </g>
   <g id="patch_55">
    <path d="M 391.132954 205.917506 
L 391.130975 205.917584 
L 391.133531 205.917036 
z
" clip-path="url(#p136025ac5a)" style="fill: #f7b6d2; opacity: 0.75"/>
   </g>
   <g id="patch_56">
    <path d="M 390.452855 205.944543 
L 390.513653 205.942126 
L 390.472103 205.922577 
z
" clip-path="url(#p136025ac5a)" style="fill: #7f7f7f; opacity: 0.75"/>
   </g>
   <g id="patch_57">
    <path d="M 390.452855 205.944543 
L 390.450606 205.944632 
L 390.451084 205.946564 
z
" clip-path="url(#p136025ac5a)" style="fill: #c7c7c7; opacity: 0.75"/>
   </g>
   <g id="patch_58">
    <path d="M 390.513653 205.942126 
L 390.612548 205.938194 
L 390.606862 205.98598 
z
" clip-path="url(#p136025ac5a)" style="fill: #bcbd22; opacity: 0.75"/>
   </g>
   <g id="patch_59">
    <path d="M 391.130975 205.917584 
L 391.057559 205.920503 
L 391.057575 205.933329 
z
" clip-path="url(#p136025ac5a)" style="fill: #dbdb8d; opacity: 0.75"/>
   </g>
   <g id="patch_60">
    <path d="M 390.23334 205.95327 
L 390.383049 205.947318 
L 390.268647 206.00082 
z
" clip-path="url(#p136025ac5a)" style="fill: #17becf; opacity: 0.75"/>
   </g>
   <g id="patch_61">
    <path d="M 390.664781 205.936118 
L 390.612548 205.938194 
L 390.624351 205.838989 
z
" clip-path="url(#p136025ac5a)" style="fill: #9edae5; opacity: 0.75"/>
   </g>
   <g id="patch_62">
    <path d="M 390.664781 205.936118 
L 390.694114 205.934952 
L 390.671644 205.952606 
z
" clip-path="url(#p136025ac5a)" style="fill: #1f77b4; opacity: 0.75"/>
   </g>
   <g id="patch_63">
    <path d="M 390.450606 205.944632 
L 390.383049 205.947318 
L 390.444196 205.918722 
z
" clip-path="url(#p136025ac5a)" style="fill: #aec7e8; opacity: 0.75"/>
   </g>
   <g id="patch_64">
    <path d="M 390.727949 205.933607 
L 391.057559 205.920503 
L 391.057377 205.774181 
z
" clip-path="url(#p136025ac5a)" style="fill: #ff7f0e; opacity: 0.75"/>
   </g>
   <g id="patch_65">
    <path d="M 391.572268 205.559755 
L 391.442941 205.587589 
L 391.677454 205.474097 
z
" clip-path="url(#p136025ac5a)" style="fill: #ffbb78; opacity: 0.75"/>
   </g>
   <g id="patch_66">
    <path d="M 390.608215 205.767242 
L 390.595615 205.769954 
L 390.598908 205.777863 
z
" clip-path="url(#p136025ac5a)" style="fill: #2ca02c; opacity: 0.75"/>
   </g>
   <g id="patch_67">
    <path d="M 390.608215 205.767242 
L 390.633536 205.761792 
L 390.636764 205.73466 
z
" clip-path="url(#p136025ac5a)" style="fill: #98df8a; opacity: 0.75"/>
   </g>
   <g id="patch_68">
    <path d="M 390.288293 205.836097 
L 390.165897 205.862439 
L 390.07012 205.733449 
z
" clip-path="url(#p136025ac5a)" style="fill: #d62728; opacity: 0.75"/>
   </g>
   <g id="patch_69">
    <path d="M 390.288293 205.836097 
L 390.416906 205.808416 
L 390.441599 205.908225 
z
" clip-path="url(#p136025ac5a)" style="fill: #ff9896; opacity: 0.75"/>
   </g>
   <g id="patch_70">
    <path d="M 390.595615 205.769954 
L 390.416906 205.808416 
L 390.131584 204.655155 
z
" clip-path="url(#p136025ac5a)" style="fill: #9467bd; opacity: 0.75"/>
   </g>
   <g id="patch_71">
    <path d="M 390.633536 205.761792 
L 390.904407 205.703495 
L 390.624921 205.834202 
z
" clip-path="url(#p136025ac5a)" style="fill: #c5b0d5; opacity: 0.75"/>
   </g>
   <g id="patch_72">
    <path d="M 391.442941 205.587589 
L 391.057249 205.670599 
L 391.057377 205.774181 
z
" clip-path="url(#p136025ac5a)" style="fill: #8c564b; opacity: 0.75"/>
   </g>
   <g id="patch_73">
    <path d="M 391.020527 205.678503 
L 391.057249 205.670599 
L 391.057223 205.649672 
z
" clip-path="url(#p136025ac5a)" style="fill: #c49c94; opacity: 0.75"/>
   </g>
   <g id="patch_74">
    <path d="M 390.55578 206.387523 
L 390.559441 206.384541 
L 390.55863 206.391361 
z
" clip-path="url(#p136025ac5a)" style="fill: #e377c2; opacity: 0.75"/>
   </g>
   <g id="patch_75">
    <path d="M 392.058606 205.163709 
L 391.677454 205.474097 
L 399.796111 201.545106 
z
" clip-path="url(#p136025ac5a)" style="fill: #f7b6d2; opacity: 0.75"/>
   </g>
   <g id="patch_76">
    <path d="M 392.058606 205.163709 
L 402.545455 196.623834 
L 391.112712 205.606076 
z
" clip-path="url(#p136025ac5a)" style="fill: #7f7f7f; opacity: 0.75"/>
   </g>
   <g id="patch_77">
    <path d="M 390.472103 205.922577 
L 390.497203 205.893932 
L 390.454082 205.914098 
z
" clip-path="url(#p136025ac5a)" style="fill: #c7c7c7; opacity: 0.75"/>
   </g>
   <g id="patch_78">
    <path d="M 390.32499 206.090466 
L 390.330522 206.084152 
L 390.333806 206.088575 
z
" clip-path="url(#p136025ac5a)" style="fill: #bcbd22; opacity: 0.75"/>
   </g>
   <g id="patch_79">
    <path d="M 390.598908 205.777863 
L 390.497203 205.893932 
L 390.622776 205.835205 
z
" clip-path="url(#p136025ac5a)" style="fill: #dbdb8d; opacity: 0.75"/>
   </g>
   <g id="patch_80">
    <path d="M 390.636764 205.73466 
L 391.056733 205.25538 
L 391.052986 202.236416 
z
" clip-path="url(#p136025ac5a)" style="fill: #17becf; opacity: 0.75"/>
   </g>
   <g id="patch_81">
    <path d="M 390.671135 206.016219 
L 390.704695 206.032009 
L 390.69591 206.010905 
z
" clip-path="url(#p136025ac5a)" style="fill: #9edae5; opacity: 0.75"/>
   </g>
   <g id="patch_82">
    <path d="M 390.441599 205.908225 
L 390.454082 205.914098 
L 390.444196 205.918722 
z
" clip-path="url(#p136025ac5a)" style="fill: #1f77b4; opacity: 0.75"/>
   </g>
   <g id="patch_83">
    <path d="M 390.606862 205.98598 
L 390.613386 205.989049 
L 390.606076 205.992586 
z
" clip-path="url(#p136025ac5a)" style="fill: #aec7e8; opacity: 0.75"/>
   </g>
   <g id="patch_84">
    <path d="M 390.613386 205.989049 
L 390.620811 205.992543 
L 390.644302 205.974087 
z
" clip-path="url(#p136025ac5a)" style="fill: #ff7f0e; opacity: 0.75"/>
   </g>
   <g id="patch_85">
    <path d="M 390.333806 206.088575 
L 390.466578 206.060096 
L 390.353348 206.114893 
z
" clip-path="url(#p136025ac5a)" style="fill: #ffbb78; opacity: 0.75"/>
   </g>
   <g id="patch_86">
    <path d="M 390.478537 206.057531 
L 390.466578 206.060096 
L 390.477826 206.054653 
z
" clip-path="url(#p136025ac5a)" style="fill: #2ca02c; opacity: 0.75"/>
   </g>
   <g id="patch_87">
    <path d="M 390.478537 206.057531 
L 390.56046 206.039958 
L 390.48823 206.096707 
z
" clip-path="url(#p136025ac5a)" style="fill: #98df8a; opacity: 0.75"/>
   </g>
   <g id="patch_88">
    <path d="M 390.601487 206.031158 
L 390.56046 206.039958 
L 390.604562 206.005309 
z
" clip-path="url(#p136025ac5a)" style="fill: #d62728; opacity: 0.75"/>
   </g>
   <g id="patch_89">
    <path d="M 391.231451 207.297499 
L 391.05898 207.065219 
L 391.058753 206.882606 
z
" clip-path="url(#p136025ac5a)" style="fill: #ff9896; opacity: 0.75"/>
   </g>
   <g id="patch_90">
    <path d="M 390.562377 206.396408 
L 390.55863 206.391361 
L 390.559441 206.384541 
z
" clip-path="url(#p136025ac5a)" style="fill: #9467bd; opacity: 0.75"/>
   </g>
   <g id="patch_91">
    <path d="M 390.562377 206.396408 
L 391.05898 207.065219 
L 391.06065 208.410411 
z
" clip-path="url(#p136025ac5a)" style="fill: #c5b0d5; opacity: 0.75"/>
   </g>
   <g id="patch_92">
    <path d="M 390.624351 205.838989 
L 390.622776 205.835205 
L 390.624921 205.834202 
z
" clip-path="url(#p136025ac5a)" style="fill: #8c564b; opacity: 0.75"/>
   </g>
   <g id="patch_93">
    <path d="M 390.674502 205.959472 
L 390.671644 205.952606 
L 390.644302 205.974087 
z
" clip-path="url(#p136025ac5a)" style="fill: #c49c94; opacity: 0.75"/>
   </g>
   <g id="patch_94">
    <path d="M 391.112712 205.606076 
L 391.057201 205.632037 
L 391.057223 205.649672 
z
" clip-path="url(#p136025ac5a)" style="fill: #e377c2; opacity: 0.75"/>
   </g>
   <g id="line2d_1">
    <path d="M 433 206.346423 
L -1 205.016548 
" clip-path="url(#p136025ac5a)" style="fill: none; stroke: #000000; stroke-width: 0.4; stroke-linecap: square"/>
   </g>
   <g id="line2d_2">
    <path d="M 433 201.874022 
L -1 244.109042 
" clip-path="url(#p136025ac5a)" style="fill: none; stroke: #000000; stroke-width: 0.4; stroke-linecap: square"/>
   </g>
   <g id="line2d_3">
    <path d="M 433 158.298041 
L -1 647.197824 
" clip-path="url(#p136025ac5a)" style="fill: none; stroke: #000000; stroke-width: 0.4; stroke-linecap: square"/>
   </g>
   <g id="line2d_4">
    <path d="M 433 205.808525 
L -1 208.995657 
" clip-path="url(#p136025ac5a)" style="fill: none; stroke: #000000; stroke-width: 0.4; stroke-linecap: square"/>
   </g>
   <g id="line2d_5">
    <path d="M 433 204.253097 
L -1 221.506609 
" clip-path="url(#p136025ac5a)" style="fill: none; stroke: #000000; stroke-width: 0.4; stroke-linecap: square"/>
   </g>
   <g id="line2d_6">
    <path d="M 433 196.643514 
L -1 290.050713 
" clip-path="url(#p136025ac5a)" style="fill: none; stroke: #000000; stroke-width: 0.4; stroke-linecap: square"/>
   </g>
   <g id="line2d_7">
    <path d="M 433 171.823437 
L -1 525.247606 
" clip-path="url(#p136025ac5a)" style="fill: none; stroke: #000000; stroke-width: 0.4; stroke-linecap: square"/>
   </g>
   <g id="line2d_8">
    <path d="M 433 157.388523 
L -1 652.681749 
" clip-path="url(#p136025ac5a)" style="fill: none; stroke: #000000; stroke-width: 0.4; stroke-linecap: square"/>
   </g>
   <g id="line2d_9">
    <path d="M 433 225.931418 
L -1 21.739872 
" clip-path="url(#p136025ac5a)" style="fill: none; stroke: #000000; stroke-width: 0.4; stroke-linecap: square"/>
   </g>
   <g id="line2d_10">
    <path d="M 433 196.936796 
L -1 290.02858 
" clip-path="url(#p136025ac5a)" style="fill: none; stroke: #000000; stroke-width: 0.4; stroke-linecap: square"/>
   </g>
   <g id="line2d_11">
    <path d="M 433 263.550275 
L 236.567364 -1 
" clip-path="url(#p136025ac5a)" style="fill: none; stroke: #000000; stroke-width: 0.4; stroke-linecap: square"/>
   </g>
   <g id="line2d_12">
    <path d="M 433 307.643137 
L 304.528288 -1 
" clip-path="url(#p136025ac5a)" style="fill: none; stroke: #000000; stroke-width: 0.4; stroke-linecap: square"/>
   </g>
   <g id="line2d_13">
    <path d="M 433 377.928024 
L 339.251658 -1 
" clip-path="url(#p136025ac5a)" style="fill: none; stroke: #000000; stroke-width: 0.4; stroke-linecap: square"/>
   </g>
   <g id="line2d_14">
    <path d="M 415.234074 -1 
L 305.344057 922.6 
" clip-path="url(#p136025ac5a)" style="fill: none; stroke: #000000; stroke-width: 0.4; stroke-linecap: square"/>
   </g>
   <g id="line2d_15">
    <path d="M 433 186.016621 
L -1 388.985681 
" clip-path="url(#p136025ac5a)" style="fill: none; stroke: #000000; stroke-width: 0.4; stroke-linecap: square"/>
   </g>
   <g id="line2d_16">
    <path d="M 433 185.476215 
L -1 395.508797 
" clip-path="url(#p136025ac5a)" style="fill: none; stroke: #000000; stroke-width: 0.4; stroke-linecap: square"/>
   </g>
   <g id="line2d_17">
    <path d="M 433 172.696934 
L -1 513.673122 
" clip-path="url(#p136025ac5a)" style="fill: none; stroke: #000000; stroke-width: 0.4; stroke-linecap: square"/>
   </g>
   <g id="line2d_18">
    <path d="M 391.947206 922.6 
L 390.800699 -1 
" clip-path="url(#p136025ac5a)" style="fill: none; stroke: #000000; stroke-width: 0.4; stroke-linecap: square"/>
   </g>
   <g id="text_1">
    <!-- k=18, 93 triangles — solution 13 (2 triple points) -->
    <g transform="translate(105.624844 28.86) scale(0.09 -0.09)">
     <defs>
      <path id="DejaVuSans-6b" d="M 581 4863 
L 1159 4863 
L 1159 1991 
L 2875 3500 
L 3609 3500 
L 1753 1863 
L 3688 0 
L 2938 0 
L 1159 1709 
L 1159 0 
L 581 0 
L 581 4863 
z
" transform="scale(0.015625)"/>
      <path id="DejaVuSans-3d" d="M 678 2906 
L 4684 2906 
L 4684 2381 
L 678 2381 
L 678 2906 
z
M 678 1631 
L 4684 1631 
L 4684 1100 
L 678 1100 
L 678 1631 
z
" transform="scale(0.015625)"/>
      <path id="DejaVuSans-31" d="M 794 531 
L 1825 531 
L 1825 4091 
L 703 3866 
L 703 4441 
L 1819 4666 
L 2450 4666 
L 2450 531 
L 3481 531 
L 3481 0 
L 794 0 
L 794 531 
z
" transform="scale(0.015625)"/>
      <path id="DejaVuSans-38" d="M 2034 2216 
Q 1584 2216 1326 1975 
Q 1069 1734 1069 1313 
Q 1069 891 1326 650 
Q 1584 409 2034 409 
Q 2484 409 2743 651 
Q 3003 894 3003 1313 
Q 3003 1734 2745 1975 
Q 2488 2216 2034 2216 
z
M 1403 2484 
Q 997 2584 770 2862 
Q 544 3141 544 3541 
Q 544 4100 942 4425 
Q 1341 4750 2034 4750 
Q 2731 4750 3128 4425 
Q 3525 4100 3525 3541 
Q 3525 3141 3298 2862 
Q 3072 2584 2669 2484 
Q 3125 2378 3379 2068 
Q 3634 1759 3634 1313 
Q 3634 634 3220 271 
Q 2806 -91 2034 -91 
Q 1263 -91 848 271 
Q 434 634 434 1313 
Q 434 1759 690 2068 
Q 947 2378 1403 2484 
z
M 1172 3481 
Q 1172 3119 1398 2916 
Q 1625 2713 2034 2713 
Q 2441 2713 2670 2916 
Q 2900 3119 2900 3481 
Q 2900 3844 2670 4047 
Q 2441 4250 2034 4250 
Q 1625 4250 1398 4047 
Q 1172 3844 1172 3481 
z
" transform="scale(0.015625)"/>
      <path id="DejaVuSans-2c" d="M 750 794 
L 1409 794 
L 1409 256 
L 897 -744 
L 494 -744 
L 750 256 
L 750 794 
z
" transform="scale(0.015625)"/>
      <path id="DejaVuSans-20" transform="scale(0.015625)"/>
      <path id="DejaVuSans-39" d="M 703 97 
L 703 672 
Q 941 559 1184 500 
Q 1428 441 1663 441 
Q 2288 441 2617 861 
Q 2947 1281 2994 2138 
Q 2813 1869 2534 1725 
Q 2256 1581 1919 1581 
Q 1219 1581 811 2004 
Q 403 2428 403 3163 
Q 403 3881 828 4315 
Q 1253 4750 1959 4750 
Q 2769 4750 3195 4129 
Q 3622 3509 3622 2328 
Q 3622 1225 3098 567 
Q 2575 -91 1691 -91 
Q 1453 -91 1209 -44 
Q 966 3 703 97 
z
M 1959 2075 
Q 2384 2075 2632 2365 
Q 2881 2656 2881 3163 
Q 2881 3666 2632 3958 
Q 2384 4250 1959 4250 
Q 1534 4250 1286 3958 
Q 1038 3666 1038 3163 
Q 1038 2656 1286 2365 
Q 1534 2075 1959 2075 
z
" transform="scale(0.015625)"/>
      <path id="DejaVuSans-33" d="M 2597 2516 
Q 3050 2419 3304 2112 
Q 3559 1806 3559 1356 
Q 3559 666 3084 287 
Q 2609 -91 1734 -91 
Q 1441 -91 1130 -33 
Q 819 25 488 141 
L 488 750 
Q 750 597 1062 519 
Q 1375 441 1716 441 
Q 2309 441 2620 675 
Q 2931 909 2931 1356 
Q 2931 1769 2642 2001 
Q 2353 2234 1838 2234 
L 1294 2234 
L 1294 2753 
L 1863 2753 
Q 2328 2753 2575 2939 
Q 2822 3125 2822 3475 
Q 2822 3834 2567 4026 
Q 2313 4219 1838 4219 
Q 1578 4219 1281 4162 
Q 984 4106 628 3988 
L 628 4550 
Q 988 4650 1302 4700 
Q 1616 4750 1894 4750 
Q 2613 4750 3031 4423 
Q 3450 4097 3450 3541 
Q 3450 3153 3228 2886 
Q 3006 2619 2597 2516 
z
" transform="scale(0.015625)"/>
      <path id="DejaVuSans-74" d="M 1172 4494 
L 1172 3500 
L 2356 3500 
L 2356 3053 
L 1172 3053 
L 1172 1153 
Q 1172 725 1289 603 
Q 1406 481 1766 481 
L 2356 481 
L 2356 0 
L 1766 0 
Q 1100 0 847 248 
Q 594 497 594 1153 
L 594 3053 
L 172 3053 
L 172 3500 
L 594 3500 
L 594 4494 
L 1172 4494 
z
" transform="scale(0.015625)"/>
      <path id="DejaVuSans-72" d="M 2631 2963 
Q 2534 3019 2420 3045 
Q 2306 3072 2169 3072 
Q 1681 3072 1420 2755 
Q 1159 2438 1159 1844 
L 1159 0 
L 581 0 
L 581 3500 
L 1159 3500 
L 1159 2956 
Q 1341 3275 1631 3429 
Q 1922 3584 2338 3584 
Q 2397 3584 2469 3576 
Q 2541 3569 2628 3553 
L 2631 2963 
z
" transform="scale(0.015625)"/>
      <path id="DejaVuSans-69" d="M 603 3500 
L 1178 3500 
L 1178 0 
L 603 0 
L 603 3500 
z
M 603 4863 
L 1178 4863 
L 1178 4134 
L 603 4134 
L 603 4863 
z
" transform="scale(0.015625)"/>
      <path id="DejaVuSans-61" d="M 2194 1759 
Q 1497 1759 1228 1600 
Q 959 1441 959 1056 
Q 959 750 1161 570 
Q 1363 391 1709 391 
Q 2188 391 2477 730 
Q 2766 1069 2766 1631 
L 2766 1759 
L 2194 1759 
z
M 3341 1997 
L 3341 0 
L 2766 0 
L 2766 531 
Q 2569 213 2275 61 
Q 1981 -91 1556 -91 
Q 1019 -91 701 211 
Q 384 513 384 1019 
Q 384 1609 779 1909 
Q 1175 2209 1959 2209 
L 2766 2209 
L 2766 2266 
Q 2766 2663 2505 2880 
Q 2244 3097 1772 3097 
Q 1472 3097 1187 3025 
Q 903 2953 641 2809 
L 641 3341 
Q 956 3463 1253 3523 
Q 1550 3584 1831 3584 
Q 2591 3584 2966 3190 
Q 3341 2797 3341 1997 
z
" transform="scale(0.015625)"/>
      <path id="DejaVuSans-6e" d="M 3513 2113 
L 3513 0 
L 2938 0 
L 2938 2094 
Q 2938 2591 2744 2837 
Q 2550 3084 2163 3084 
Q 1697 3084 1428 2787 
Q 1159 2491 1159 1978 
L 1159 0 
L 581 0 
L 581 3500 
L 1159 3500 
L 1159 2956 
Q 1366 3272 1645 3428 
Q 1925 3584 2291 3584 
Q 2894 3584 3203 3211 
Q 3513 2838 3513 2113 
z
" transform="scale(0.015625)"/>
      <path id="DejaVuSans-67" d="M 2906 1791 
Q 2906 2416 2648 2759 
Q 2391 3103 1925 3103 
Q 1463 3103 1205 2759 
Q 947 2416 947 1791 
Q 947 1169 1205 825 
Q 1463 481 1925 481 
Q 2391 481 2648 825 
Q 2906 1169 2906 1791 
z
M 3481 434 
Q 3481 -459 3084 -895 
Q 2688 -1331 1869 -1331 
Q 1566 -1331 1297 -1286 
Q 1028 -1241 775 -1147 
L 775 -588 
Q 1028 -725 1275 -790 
Q 1522 -856 1778 -856 
Q 2344 -856 2625 -561 
Q 2906 -266 2906 331 
L 2906 616 
Q 2728 306 2450 153 
Q 2172 0 1784 0 
Q 1141 0 747 490 
Q 353 981 353 1791 
Q 353 2603 747 3093 
Q 1141 3584 1784 3584 
Q 2172 3584 2450 3431 
Q 2728 3278 2906 2969 
L 2906 3500 
L 3481 3500 
L 3481 434 
z
" transform="scale(0.015625)"/>
      <path id="DejaVuSans-6c" d="M 603 4863 
L 1178 4863 
L 1178 0 
L 603 0 
L 603 4863 
z
" transform="scale(0.015625)"/>
      <path id="DejaVuSans-65" d="M 3597 1894 
L 3597 1613 
L 953 1613 
Q 991 1019 1311 708 
Q 1631 397 2203 397 
Q 2534 397 2845 478 
Q 3156 559 3463 722 
L 3463 178 
Q 3153 47 2828 -22 
Q 2503 -91 2169 -91 
Q 1331 -91 842 396 
Q 353 884 353 1716 
Q 353 2575 817 3079 
Q 1281 3584 2069 3584 
Q 2775 3584 3186 3129 
Q 3597 2675 3597 1894 
z
M 3022 2063 
Q 3016 2534 2758 2815 
Q 2500 3097 2075 3097 
Q 1594 3097 1305 2825 
Q 1016 2553 972 2059 
L 3022 2063 
z
" transform="scale(0.015625)"/>
      <path id="DejaVuSans-73" d="M 2834 3397 
L 2834 2853 
Q 2591 2978 2328 3040 
Q 2066 3103 1784 3103 
Q 1356 3103 1142 2972 
Q 928 2841 928 2578 
Q 928 2378 1081 2264 
Q 1234 2150 1697 2047 
L 1894 2003 
Q 2506 1872 2764 1633 
Q 3022 1394 3022 966 
Q 3022 478 2636 193 
Q 2250 -91 1575 -91 
Q 1294 -91 989 -36 
Q 684 19 347 128 
L 347 722 
Q 666 556 975 473 
Q 1284 391 1588 391 
Q 1994 391 2212 530 
Q 2431 669 2431 922 
Q 2431 1156 2273 1281 
Q 2116 1406 1581 1522 
L 1381 1569 
Q 847 1681 609 1914 
Q 372 2147 372 2553 
Q 372 3047 722 3315 
Q 1072 3584 1716 3584 
Q 2034 3584 2315 3537 
Q 2597 3491 2834 3397 
z
" transform="scale(0.015625)"/>
      <path id="DejaVuSans-2014" d="M 313 1978 
L 6088 1978 
L 6088 1528 
L 313 1528 
L 313 1978 
z
" transform="scale(0.015625)"/>
      <path id="DejaVuSans-6f" d="M 1959 3097 
Q 1497 3097 1228 2736 
Q 959 2375 959 1747 
Q 959 1119 1226 758 
Q 1494 397 1959 397 
Q 2419 397 2687 759 
Q 2956 1122 2956 1747 
Q 2956 2369 2687 2733 
Q 2419 3097 1959 3097 
z
M 1959 3584 
Q 2709 3584 3137 3096 
Q 3566 2609 3566 1747 
Q 3566 888 3137 398 
Q 2709 -91 1959 -91 
Q 1206 -91 779 398 
Q 353 888 353 1747 
Q 353 2609 779 3096 
Q 1206 3584 1959 3584 
z
" transform="scale(0.015625)"/>
      <path id="DejaVuSans-75" d="M 544 1381 
L 544 3500 
L 1119 3500 
L 1119 1403 
Q 1119 906 1312 657 
Q 1506 409 1894 409 
Q 2359 409 2629 706 
Q 2900 1003 2900 1516 
L 2900 3500 
L 3475 3500 
L 3475 0 
L 2900 0 
L 2900 538 
Q 2691 219 2414 64 
Q 2138 -91 1772 -91 
Q 1169 -91 856 284 
Q 544 659 544 1381 
z
M 1991 3584 
L 1991 3584 
z
" transform="scale(0.015625)"/>
      <path id="DejaVuSans-28" d="M 1984 4856 
Q 1566 4138 1362 3434 
Q 1159 2731 1159 2009 
Q 1159 1288 1364 580 
Q 1569 -128 1984 -844 
L 1484 -844 
Q 1016 -109 783 600 
Q 550 1309 550 2009 
Q 550 2706 781 3412 
Q 1013 4119 1484 4856 
L 1984 4856 
z
" transform="scale(0.015625)"/>
      <path id="DejaVuSans-32" d="M 1228 531 
L 3431 531 
L 3431 0 
L 469 0 
L 469 531 
Q 828 903 1448 1529 
Q 2069 2156 2228 2338 
Q 2531 2678 2651 2914 
Q 2772 3150 2772 3378 
Q 2772 3750 2511 3984 
Q 2250 4219 1831 4219 
Q 1534 4219 1204 4116 
Q 875 4013 500 3803 
L 500 4441 
Q 881 4594 1212 4672 
Q 1544 4750 1819 4750 
Q 2544 4750 2975 4387 
Q 3406 4025 3406 3419 
Q 3406 3131 3298 2873 
Q 3191 2616 2906 2266 
Q 2828 2175 2409 1742 
Q 1991 1309 1228 531 
z
" transform="scale(0.015625)"/>
      <path id="DejaVuSans-70" d="M 1159 525 
L 1159 -1331 
L 581 -1331 
L 581 3500 
L 1159 3500 
L 1159 2969 
Q 1341 3281 1617 3432 
Q 1894 3584 2278 3584 
Q 2916 3584 3314 3078 
Q 3713 2572 3713 1747 
Q 3713 922 3314 415 
Q 2916 -91 2278 -91 
Q 1894 -91 1617 61 
Q 1341 213 1159 525 
z
M 3116 1747 
Q 3116 2381 2855 2742 
Q 2594 3103 2138 3103 
Q 1681 3103 1420 2742 
Q 1159 2381 1159 1747 
Q 1159 1113 1420 752 
Q 1681 391 2138 391 
Q 2594 391 2855 752 
Q 3116 1113 3116 1747 
z
" transform="scale(0.015625)"/>
      <path id="DejaVuSans-29" d="M 513 4856 
L 1013 4856 
Q 1481 4119 1714 3412 
Q 1947 2706 1947 2009 
Q 1947 1309 1714 600 
Q 1481 -109 1013 -844 
L 513 -844 
Q 928 -128 1133 580 
Q 1338 1288 1338 2009 
Q 1338 2731 1133 3434 
Q 928 4138 513 4856 
z
" transform="scale(0.015625)"/>
     </defs>
     <use xlink:href="#DejaVuSans-6b"/>
     <use xlink:href="#DejaVuSans-3d" transform="translate(57.910156 0)"/>
     <use xlink:href="#DejaVuSans-31" transform="translate(141.699219 0)"/>
     <use xlink:href="#DejaVuSans-38" transform="translate(205.322266 0)"/>
     <use xlink:href="#DejaVuSans-2c" transform="translate(268.945312 0)"/>
     <use xlink:href="#DejaVuSans-20" transform="translate(300.732422 0)"/>
     <use xlink:href="#DejaVuSans-39" transform="translate(332.519531 0)"/>
     <use xlink:href="#DejaVuSans-33" transform="translate(396.142578 0)"/>
     <use xlink:href="#DejaVuSans-20" transform="translate(459.765625 0)"/>
     <use xlink:href="#DejaVuSans-74" transform="translate(491.552734 0)"/>
     <use xlink:href="#DejaVuSans-72" transform="translate(530.761719 0)"/>
     <use xlink:href="#DejaVuSans-69" transform="translate(571.875 0)"/>
     <use xlink:href="#DejaVuSans-61" transform="translate(599.658203 0)"/>
     <use xlink:href="#DejaVuSans-6e" transform="translate(660.9375 0)"/>
     <use xlink:href="#DejaVuSans-67" transform="translate(724.316406 0)"/>
     <use xlink:href="#DejaVuSans-6c" transform="translate(787.792969 0)"/>
     <use xlink:href="#DejaVuSans-65" transform="translate(815.576172 0)"/>
     <use xlink:href="#DejaVuSans-73" transform="translate(877.099609 0)"/>
     <use xlink:href="#DejaVuSans-20" transform="translate(929.199219 0)"/>
     <use xlink:href="#DejaVuSans-2014" transform="translate(960.986328 0)"/>
     <use xlink:href="#DejaVuSans-20" transform="translate(1060.986328 0)"/>
     <use xlink:href="#DejaVuSans-73" transform="translate(1092.773438 0)"/>
     <use xlink:href="#DejaVuSans-6f" transform="translate(1144.873047 0)"/>
     <use xlink:href="#DejaVuSans-6c" transform="translate(1206.054688 0)"/>
     <use xlink:href="#DejaVuSans-75" transform="translate(1233.837891 0)"/>
     <use xlink:href="#DejaVuSans-74" transform="translate(1297.216797 0)"/>
     <use xlink:href="#DejaVuSans-69" transform="translate(1336.425781 0)"/>
     <use xlink:href="#DejaVuSans-6f" transform="translate(1364.208984 0)"/>
     <use xlink:href="#DejaVuSans-6e" transform="translate(1425.390625 0)"/>
     <use xlink:href="#DejaVuSans-20" transform="translate(1488.769531 0)"/>
     <use xlink:href="#DejaVuSans-31" transform="translate(1520.556641 0)"/>
     <use xlink:href="#DejaVuSans-33" transform="translate(1584.179688 0)"/>
     <use xlink:href="#DejaVuSans-20" transform="translate(1647.802734 0)"/>
     <use xlink:href="#DejaVuSans-28" transform="translate(1679.589844 0)"/>
     <use xlink:href="#DejaVuSans-32" transform="translate(1718.603516 0)"/>
     <use xlink:href="#DejaVuSans-20" transform="translate(1782.226562 0)"/>
     <use xlink:href="#DejaVuSans-74" transform="translate(1814.013672 0)"/>
     <use xlink:href="#DejaVuSans-72" transform="translate(1853.222656 0)"/>
     <use xlink:href="#DejaVuSans-69" transform="translate(1894.335938 0)"/>
     <use xlink:href="#DejaVuSans-70" transform="translate(1922.119141 0)"/>
     <use xlink:href="#DejaVuSans-6c" transform="translate(1985.595703 0)"/>
     <use xlink:href="#DejaVuSans-65" transform="translate(2013.378906 0)"/>
     <use xlink:href="#DejaVuSans-20" transform="translate(2074.902344 0)"/>
     <use xlink:href="#DejaVuSans-70" transform="translate(2106.689453 0)"/>
     <use xlink:href="#DejaVuSans-6f" transform="translate(2170.166016 0)"/>
     <use xlink:href="#DejaVuSans-69" transform="translate(2231.347656 0)"/>
     <use xlink:href="#DejaVuSans-6e" transform="translate(2259.130859 0)"/>
     <use xlink:href="#DejaVuSans-74" transform="translate(2322.509766 0)"/>
     <use xlink:href="#DejaVuSans-73" transform="translate(2361.71875 0)"/>
     <use xlink:href="#DejaVuSans-29" transform="translate(2413.818359 0)"/>
    </g>
   </g>
  </g>
  <g id="axes_2">
   <g id="patch_95">
    <path d="M 50.516129 720.428767 
L 63.411196 720.46828 
L 74.389275 718.105534 
z
" clip-path="url(#p91e3ea9e1c)" style="fill: #1f77b4; opacity: 0.75"/>
   </g>
   <g id="patch_96">
    <path d="M 298.906148 721.18989 
L 294.671497 721.176914 
L 296.605494 723.78157 
z
" clip-path="url(#p91e3ea9e1c)" style="fill: #aec7e8; opacity: 0.75"/>
   </g>
   <g id="patch_97">
    <path d="M 298.906148 721.18989 
L 305.678346 721.210642 
L 304.198292 715.228305 
z
" clip-path="url(#p91e3ea9e1c)" style="fill: #ff7f0e; opacity: 0.75"/>
   </g>
   <g id="patch_98">
    <path d="M -826.961613 717.739974 
L -482.97103 718.79404 
L -372.508489 714.402642 
z
" clip-path="url(#p91e3ea9e1c)" style="fill: #ffbb78; opacity: 0.75"/>
   </g>
   <g id="patch_99">
    <path d="M 63.411196 720.46828 
L 211.095392 720.920818 
L -44146.863695 10235.578784 
z
" clip-path="url(#p91e3ea9e1c)" style="fill: #2ca02c; opacity: 0.75"/>
   </g>
   <g id="patch_100">
    <path d="M 336.133118 721.303962 
L 338.170506 721.310205 
L 337.652789 720.066431 
z
" clip-path="url(#p91e3ea9e1c)" style="fill: #98df8a; opacity: 0.75"/>
   </g>
   <g id="patch_101">
    <path d="M 336.133118 721.303962 
L 313.266881 721.233895 
L 310.804438 741.930155 
z
" clip-path="url(#p91e3ea9e1c)" style="fill: #d62728; opacity: 0.75"/>
   </g>
   <g id="patch_102">
    <path d="M 268.470347 721.096628 
L 259.936062 721.070477 
L 274.793784 713.880141 
z
" clip-path="url(#p91e3ea9e1c)" style="fill: #ff9896; opacity: 0.75"/>
   </g>
   <g id="patch_103">
    <path d="M 268.470347 721.096628 
L 283.391516 721.14235 
L 235.372211 758.869169 
z
" clip-path="url(#p91e3ea9e1c)" style="fill: #9467bd; opacity: 0.75"/>
   </g>
   <g id="patch_104">
    <path d="M 377.365541 721.430308 
L 372.17596 721.414406 
L 372.172947 718.987258 
z
" clip-path="url(#p91e3ea9e1c)" style="fill: #c5b0d5; opacity: 0.75"/>
   </g>
   <g id="patch_105">
    <path d="M 211.095392 720.920818 
L 218.859997 720.944611 
L 225.532413 717.824118 
z
" clip-path="url(#p91e3ea9e1c)" style="fill: #8c564b; opacity: 0.75"/>
   </g>
   <g id="patch_106">
    <path d="M 294.671497 721.176914 
L 283.391516 721.14235 
L 290.499367 715.558 
z
" clip-path="url(#p91e3ea9e1c)" style="fill: #c49c94; opacity: 0.75"/>
   </g>
   <g id="patch_107">
    <path d="M 338.170506 721.310205 
L 372.17596 721.414406 
L 372.277546 803.249675 
z
" clip-path="url(#p91e3ea9e1c)" style="fill: #e377c2; opacity: 0.75"/>
   </g>
   <g id="patch_108">
    <path d="M 305.678346 721.210642 
L 313.266881 721.233895 
L 310.804438 741.930155 
z
" clip-path="url(#p91e3ea9e1c)" style="fill: #f7b6d2; opacity: 0.75"/>
   </g>
   <g id="patch_109">
    <path d="M 323.132561 693.898904 
L 319.582971 694.244334 
L 321.870515 695.320595 
z
" clip-path="url(#p91e3ea9e1c)" style="fill: #7f7f7f; opacity: 0.75"/>
   </g>
   <g id="patch_110">
    <path d="M 323.132561 693.898904 
L 326.619397 693.55958 
L 325.602489 691.116537 
z
" clip-path="url(#p91e3ea9e1c)" style="fill: #c7c7c7; opacity: 0.75"/>
   </g>
   <g id="patch_111">
    <path d="M 152.021587 710.55069 
L 74.389275 718.105534 
L 107.989093 710.874048 
z
" clip-path="url(#p91e3ea9e1c)" style="fill: #bcbd22; opacity: 0.75"/>
   </g>
   <g id="patch_112">
    <path d="M 152.021587 710.55069 
L 264.487438 699.605996 
L 242.505701 709.886209 
z
" clip-path="url(#p91e3ea9e1c)" style="fill: #dbdb8d; opacity: 0.75"/>
   </g>
   <g id="patch_113">
    <path d="M 447.369641 681.808683 
L 376.118042 688.742584 
L 381.412889 684.43077 
z
" clip-path="url(#p91e3ea9e1c)" style="fill: #17becf; opacity: 0.75"/>
   </g>
   <g id="patch_114">
    <path d="M 376.118042 688.742584 
L 372.135884 689.13011 
L 372.139425 691.982536 
z
" clip-path="url(#p91e3ea9e1c)" style="fill: #9edae5; opacity: 0.75"/>
   </g>
   <g id="patch_115">
    <path d="M 289.428257 697.178862 
L 277.700038 698.320202 
L 282.620949 704.947556 
z
" clip-path="url(#p91e3ea9e1c)" style="fill: #1f77b4; opacity: 0.75"/>
   </g>
   <g id="patch_116">
    <path d="M 289.428257 697.178862 
L 299.490523 696.199645 
L 297.463951 688.008298 
z
" clip-path="url(#p91e3ea9e1c)" style="fill: #aec7e8; opacity: 0.75"/>
   </g>
   <g id="patch_117">
    <path d="M 319.582971 694.244334 
L 317.351321 694.461509 
L 318.360071 693.668975 
z
" clip-path="url(#p91e3ea9e1c)" style="fill: #ff7f0e; opacity: 0.75"/>
   </g>
   <g id="patch_118">
    <path d="M 348.650719 691.415586 
L 326.619397 693.55958 
L 327.605925 695.929635 
z
" clip-path="url(#p91e3ea9e1c)" style="fill: #ffbb78; opacity: 0.75"/>
   </g>
   <g id="patch_119">
    <path d="M 348.650719 691.415586 
L 372.135884 689.13011 
L 372.132469 686.378816 
z
" clip-path="url(#p91e3ea9e1c)" style="fill: #2ca02c; opacity: 0.75"/>
   </g>
   <g id="patch_120">
    <path d="M 277.700038 698.320202 
L 264.487438 699.605996 
L 275.00315 694.688106 
z
" clip-path="url(#p91e3ea9e1c)" style="fill: #98df8a; opacity: 0.75"/>
   </g>
   <g id="patch_121">
    <path d="M 299.490523 696.199645 
L 314.307278 694.757742 
L 300.756258 701.315705 
z
" clip-path="url(#p91e3ea9e1c)" style="fill: #d62728; opacity: 0.75"/>
   </g>
   <g id="patch_122">
    <path d="M 316.441731 694.550026 
L 314.307278 694.757742 
L 316.545917 693.674361 
z
" clip-path="url(#p91e3ea9e1c)" style="fill: #ff9896; opacity: 0.75"/>
   </g>
   <g id="patch_123">
    <path d="M 316.441731 694.550026 
L 317.351321 694.461509 
L 316.359554 695.2407 
z
" clip-path="url(#p91e3ea9e1c)" style="fill: #9467bd; opacity: 0.75"/>
   </g>
   <g id="patch_124">
    <path d="M 309.37644 709.395136 
L 304.198292 715.228305 
L 302.76715 709.443672 
z
" clip-path="url(#p91e3ea9e1c)" style="fill: #c5b0d5; opacity: 0.75"/>
   </g>
   <g id="patch_125">
    <path d="M 309.37644 709.395136 
L 315.495616 702.501901 
L 314.680092 709.356188 
z
" clip-path="url(#p91e3ea9e1c)" style="fill: #8c564b; opacity: 0.75"/>
   </g>
   <g id="patch_126">
    <path d="M 329.712979 686.486081 
L 328.442834 687.916896 
L 331.550324 686.413038 
z
" clip-path="url(#p91e3ea9e1c)" style="fill: #c49c94; opacity: 0.75"/>
   </g>
   <g id="patch_127">
    <path d="M 329.712979 686.486081 
L 334.808145 680.746391 
L 327.384766 686.578639 
z
" clip-path="url(#p91e3ea9e1c)" style="fill: #e377c2; opacity: 0.75"/>
   </g>
   <g id="patch_128">
    <path d="M 355.317073 657.643141 
L 356.099524 656.761712 
L 353.275061 658.082631 
z
" clip-path="url(#p91e3ea9e1c)" style="fill: #f7b6d2; opacity: 0.75"/>
   </g>
   <g id="patch_129">
    <path d="M 355.317073 657.643141 
L 334.808145 680.746391 
L 367.571251 655.005748 
z
" clip-path="url(#p91e3ea9e1c)" style="fill: #7f7f7f; opacity: 0.75"/>
   </g>
   <g id="patch_130">
    <path d="M 201.424263 831.00296 
L -2065.253683 3384.409312 
L 99.274599 914.187661 
z
" clip-path="url(#p91e3ea9e1c)" style="fill: #c7c7c7; opacity: 0.75"/>
   </g>
   <g id="patch_131">
    <path d="M 201.424263 831.00296 
L 296.605494 723.78157 
L 310.353663 742.29724 
z
" clip-path="url(#p91e3ea9e1c)" style="fill: #bcbd22; opacity: 0.75"/>
   </g>
   <g id="patch_132">
    <path d="M 321.870515 695.320595 
L 319.853772 697.59245 
L 324.55564 696.583913 
z
" clip-path="url(#p91e3ea9e1c)" style="fill: #dbdb8d; opacity: 0.75"/>
   </g>
   <g id="patch_133">
    <path d="M 319.853772 697.59245 
L 315.495616 702.501901 
L 315.980904 698.42317 
z
" clip-path="url(#p91e3ea9e1c)" style="fill: #17becf; opacity: 0.75"/>
   </g>
   <g id="patch_134">
    <path d="M 325.602489 691.116537 
L 328.442834 687.916896 
L 324.970182 689.597472 
z
" clip-path="url(#p91e3ea9e1c)" style="fill: #9edae5; opacity: 0.75"/>
   </g>
   <g id="patch_135">
    <path d="M 356.099524 656.761712 
L 372.073366 638.767224 
L 372.086423 649.285109 
z
" clip-path="url(#p91e3ea9e1c)" style="fill: #1f77b4; opacity: 0.75"/>
   </g>
   <g id="patch_136">
    <path d="M -372.508489 714.402642 
L 107.989093 710.874048 
L 196.74201 691.772294 
z
" clip-path="url(#p91e3ea9e1c)" style="fill: #aec7e8; opacity: 0.75"/>
   </g>
   <g id="patch_137">
    <path d="M 351.133553 709.088487 
L 333.138262 709.220638 
L 337.652789 720.066431 
z
" clip-path="url(#p91e3ea9e1c)" style="fill: #ff7f0e; opacity: 0.75"/>
   </g>
   <g id="patch_138">
    <path d="M 351.133553 709.088487 
L 372.160468 708.934073 
L 372.139425 691.982536 
z
" clip-path="url(#p91e3ea9e1c)" style="fill: #ffbb78; opacity: 0.75"/>
   </g>
   <g id="patch_139">
    <path d="M 278.525242 709.621695 
L 263.249662 709.733873 
L 281.939813 705.724888 
z
" clip-path="url(#p91e3ea9e1c)" style="fill: #2ca02c; opacity: 0.75"/>
   </g>
   <g id="patch_140">
    <path d="M 278.525242 709.621695 
L 283.671296 709.583904 
L 274.793784 713.880141 
z
" clip-path="url(#p91e3ea9e1c)" style="fill: #98df8a; opacity: 0.75"/>
   </g>
   <g id="patch_141">
    <path d="M 351.133553 709.088487 
L 333.138262 709.220638 
L 328.687432 698.527869 
z
" clip-path="url(#p91e3ea9e1c)" style="fill: #d62728; opacity: 0.75"/>
   </g>
   <g id="patch_142">
    <path d="M 351.133553 709.088487 
L 372.160468 708.934073 
L 372.172947 718.987258 
z
" clip-path="url(#p91e3ea9e1c)" style="fill: #ff9896; opacity: 0.75"/>
   </g>
   <g id="patch_143">
    <path d="M 263.249662 709.733873 
L 242.505701 709.886209 
L 225.532413 717.824118 
z
" clip-path="url(#p91e3ea9e1c)" style="fill: #9467bd; opacity: 0.75"/>
   </g>
   <g id="patch_144">
    <path d="M 286.050536 709.566432 
L 283.671296 709.583904 
L 285.431134 708.732238 
z
" clip-path="url(#p91e3ea9e1c)" style="fill: #c5b0d5; opacity: 0.75"/>
   </g>
   <g id="patch_145">
    <path d="M 286.050536 709.566432 
L 298.239462 709.476921 
L 290.499367 715.558 
z
" clip-path="url(#p91e3ea9e1c)" style="fill: #8c564b; opacity: 0.75"/>
   </g>
   <g id="patch_146">
    <path d="M 302.76715 709.443672 
L 298.239462 709.476921 
L 302.037191 706.4932 
z
" clip-path="url(#p91e3ea9e1c)" style="fill: #c49c94; opacity: 0.75"/>
   </g>
   <g id="patch_147">
    <path d="M 196.74201 691.772294 
L 270.656282 688.833859 
L 262.353012 677.651234 
z
" clip-path="url(#p91e3ea9e1c)" style="fill: #e377c2; opacity: 0.75"/>
   </g>
   <g id="patch_148">
    <path d="M 381.412889 684.43077 
L 381.169228 684.440457 
L 381.483871 684.372967 
z
" clip-path="url(#p91e3ea9e1c)" style="fill: #f7b6d2; opacity: 0.75"/>
   </g>
   <g id="patch_149">
    <path d="M 297.681993 687.759462 
L 305.167189 687.46189 
L 300.05168 685.055108 
z
" clip-path="url(#p91e3ea9e1c)" style="fill: #7f7f7f; opacity: 0.75"/>
   </g>
   <g id="patch_150">
    <path d="M 297.681993 687.759462 
L 297.405111 687.770469 
L 297.463951 688.008298 
z
" clip-path="url(#p91e3ea9e1c)" style="fill: #c7c7c7; opacity: 0.75"/>
   </g>
   <g id="patch_151">
    <path d="M 305.167189 687.46189 
L 317.342668 686.977859 
L 316.642695 692.860972 
z
" clip-path="url(#p91e3ea9e1c)" style="fill: #bcbd22; opacity: 0.75"/>
   </g>
   <g id="patch_152">
    <path d="M 381.169228 684.440457 
L 372.130509 684.799788 
L 372.132469 686.378816 
z
" clip-path="url(#p91e3ea9e1c)" style="fill: #dbdb8d; opacity: 0.75"/>
   </g>
   <g id="patch_153">
    <path d="M 270.656282 688.833859 
L 289.087819 688.10112 
L 275.00315 694.688106 
z
" clip-path="url(#p91e3ea9e1c)" style="fill: #17becf; opacity: 0.75"/>
   </g>
   <g id="patch_154">
    <path d="M 323.773363 686.722209 
L 317.342668 686.977859 
L 318.795857 674.764143 
z
" clip-path="url(#p91e3ea9e1c)" style="fill: #9edae5; opacity: 0.75"/>
   </g>
   <g id="patch_155">
    <path d="M 323.773363 686.722209 
L 327.384766 686.578639 
L 324.618312 688.75213 
z
" clip-path="url(#p91e3ea9e1c)" style="fill: #1f77b4; opacity: 0.75"/>
   </g>
   <g id="patch_156">
    <path d="M 297.405111 687.770469 
L 289.087819 688.10112 
L 296.61589 684.580462 
z
" clip-path="url(#p91e3ea9e1c)" style="fill: #aec7e8; opacity: 0.75"/>
   </g>
   <g id="patch_157">
    <path d="M 331.550324 686.413038 
L 372.130509 684.799788 
L 372.108146 666.785241 
z
" clip-path="url(#p91e3ea9e1c)" style="fill: #ff7f0e; opacity: 0.75"/>
   </g>
   <g id="patch_158">
    <path d="M 435.499237 640.386018 
L 419.577045 643.812855 
L 448.449311 629.840236 
z
" clip-path="url(#p91e3ea9e1c)" style="fill: #ffbb78; opacity: 0.75"/>
   </g>
   <g id="patch_159">
    <path d="M 316.809187 665.930961 
L 315.258035 666.264806 
L 315.663373 667.238597 
z
" clip-path="url(#p91e3ea9e1c)" style="fill: #2ca02c; opacity: 0.75"/>
   </g>
   <g id="patch_160">
    <path d="M 316.809187 665.930961 
L 319.92666 665.260006 
L 320.324097 661.919645 
z
" clip-path="url(#p91e3ea9e1c)" style="fill: #98df8a; opacity: 0.75"/>
   </g>
   <g id="patch_161">
    <path d="M 277.421853 674.408059 
L 262.353012 677.651234 
L 250.561342 661.770526 
z
" clip-path="url(#p91e3ea9e1c)" style="fill: #d62728; opacity: 0.75"/>
   </g>
   <g id="patch_162">
    <path d="M 277.421853 674.408059 
L 293.256067 671.000156 
L 296.296177 683.288191 
z
" clip-path="url(#p91e3ea9e1c)" style="fill: #ff9896; opacity: 0.75"/>
   </g>
   <g id="patch_163">
    <path d="M 315.258035 666.264806 
L 293.256067 671.000156 
L 258.128525 529.015671 
z
" clip-path="url(#p91e3ea9e1c)" style="fill: #9467bd; opacity: 0.75"/>
   </g>
   <g id="patch_164">
    <path d="M 319.92666 665.260006 
L 353.275061 658.082631 
L 318.865983 674.174746 
z
" clip-path="url(#p91e3ea9e1c)" style="fill: #c5b0d5; opacity: 0.75"/>
   </g>
   <g id="patch_165">
    <path d="M 419.577045 643.812855 
L 372.092316 654.032706 
L 372.108146 666.785241 
z
" clip-path="url(#p91e3ea9e1c)" style="fill: #8c564b; opacity: 0.75"/>
   </g>
   <g id="patch_166">
    <path d="M 367.571251 655.005748 
L 372.092316 654.032706 
L 372.089118 651.456244 
z
" clip-path="url(#p91e3ea9e1c)" style="fill: #c49c94; opacity: 0.75"/>
   </g>
   <g id="patch_167">
    <path d="M 310.353663 742.29724 
L 310.804438 741.930155 
L 310.704539 742.76979 
z
" clip-path="url(#p91e3ea9e1c)" style="fill: #e377c2; opacity: 0.75"/>
   </g>
   <g id="patch_168">
    <path d="M 495.375128 591.626601 
L 448.449311 629.840236 
L 1447.98309 146.11982 
z
" clip-path="url(#p91e3ea9e1c)" style="fill: #f7b6d2; opacity: 0.75"/>
   </g>
   <g id="patch_169">
    <path d="M 495.375128 591.626601 
L 1786.47039 -459.765725 
L 378.92079 646.088876 
z
" clip-path="url(#p91e3ea9e1c)" style="fill: #7f7f7f; opacity: 0.75"/>
   </g>
   <g id="patch_170">
    <path d="M 300.05168 685.055108 
L 303.141931 681.528424 
L 297.833009 684.011251 
z
" clip-path="url(#p91e3ea9e1c)" style="fill: #c7c7c7; opacity: 0.75"/>
   </g>
   <g id="patch_171">
    <path d="M 281.939813 705.724888 
L 282.620949 704.947556 
L 283.025255 705.492064 
z
" clip-path="url(#p91e3ea9e1c)" style="fill: #bcbd22; opacity: 0.75"/>
   </g>
   <g id="patch_172">
    <path d="M 315.663373 667.238597 
L 303.141931 681.528424 
L 318.601926 674.298238 
z
" clip-path="url(#p91e3ea9e1c)" style="fill: #dbdb8d; opacity: 0.75"/>
   </g>
   <g id="patch_173">
    <path d="M 320.324097 661.919645 
L 372.028858 602.91269 
L 371.567473 231.231002 
z
" clip-path="url(#p91e3ea9e1c)" style="fill: #17becf; opacity: 0.75"/>
   </g>
   <g id="patch_174">
    <path d="M 324.55564 696.583913 
L 328.687432 698.527869 
L 327.605925 695.929635 
z
" clip-path="url(#p91e3ea9e1c)" style="fill: #9edae5; opacity: 0.75"/>
   </g>
   <g id="patch_175">
    <path d="M 296.296177 683.288191 
L 297.833009 684.011251 
L 296.61589 684.580462 
z
" clip-path="url(#p91e3ea9e1c)" style="fill: #1f77b4; opacity: 0.75"/>
   </g>
   <g id="patch_176">
    <path d="M 316.642695 692.860972 
L 317.445846 693.238844 
L 316.545917 693.674361 
z
" clip-path="url(#p91e3ea9e1c)" style="fill: #aec7e8; opacity: 0.75"/>
   </g>
   <g id="patch_177">
    <path d="M 317.445846 693.238844 
L 318.360071 693.668975 
L 321.252108 691.396819 
z
" clip-path="url(#p91e3ea9e1c)" style="fill: #ff7f0e; opacity: 0.75"/>
   </g>
   <g id="patch_178">
    <path d="M 283.025255 705.492064 
L 299.371547 701.98583 
L 285.431134 708.732238 
z
" clip-path="url(#p91e3ea9e1c)" style="fill: #ffbb78; opacity: 0.75"/>
   </g>
   <g id="patch_179">
    <path d="M 300.843914 701.670011 
L 299.371547 701.98583 
L 300.756258 701.315705 
z
" clip-path="url(#p91e3ea9e1c)" style="fill: #2ca02c; opacity: 0.75"/>
   </g>
   <g id="patch_180">
    <path d="M 300.843914 701.670011 
L 310.929836 699.50661 
L 302.037191 706.4932 
z
" clip-path="url(#p91e3ea9e1c)" style="fill: #98df8a; opacity: 0.75"/>
   </g>
   <g id="patch_181">
    <path d="M 315.980904 698.42317 
L 310.929836 699.50661 
L 316.359554 695.2407 
z
" clip-path="url(#p91e3ea9e1c)" style="fill: #d62728; opacity: 0.75"/>
   </g>
   <g id="patch_182">
    <path d="M 393.539391 854.329576 
L 372.305455 825.732273 
L 372.277546 803.249675 
z
" clip-path="url(#p91e3ea9e1c)" style="fill: #ff9896; opacity: 0.75"/>
   </g>
   <g id="patch_183">
    <path d="M 311.165888 743.391124 
L 310.704539 742.76979 
L 310.804438 741.930155 
z
" clip-path="url(#p91e3ea9e1c)" style="fill: #9467bd; opacity: 0.75"/>
   </g>
   <g id="patch_184">
    <path d="M 311.165888 743.391124 
L 372.305455 825.732273 
L 372.511039 991.346409 
z
" clip-path="url(#p91e3ea9e1c)" style="fill: #c5b0d5; opacity: 0.75"/>
   </g>
   <g id="patch_185">
    <path d="M 318.795857 674.764143 
L 318.601926 674.298238 
L 318.865983 674.174746 
z
" clip-path="url(#p91e3ea9e1c)" style="fill: #8c564b; opacity: 0.75"/>
   </g>
   <g id="patch_186">
    <path d="M 324.970182 689.597472 
L 324.618312 688.75213 
L 321.252108 691.396819 
z
" clip-path="url(#p91e3ea9e1c)" style="fill: #c49c94; opacity: 0.75"/>
   </g>
   <g id="patch_187">
    <path d="M 378.92079 646.088876 
L 372.086423 649.285109 
L 372.089118 651.456244 
z
" clip-path="url(#p91e3ea9e1c)" style="fill: #e377c2; opacity: 0.75"/>
   </g>
   <g id="line2d_19">
    <path d="M 433 721.600785 
L -1 720.270909 
" clip-path="url(#p91e3ea9e1c)" style="fill: none; stroke: #000000; stroke-width: 0.4; stroke-linecap: square"/>
   </g>
   <g id="line2d_20">
    <path d="M 433 683.207075 
L -1 725.442095 
" clip-path="url(#p91e3ea9e1c)" style="fill: none; stroke: #000000; stroke-width: 0.4; stroke-linecap: square"/>
   </g>
   <g id="line2d_21">
    <path d="M 433 570.133542 
L 120.112885 922.6 
" clip-path="url(#p91e3ea9e1c)" style="fill: none; stroke: #000000; stroke-width: 0.4; stroke-linecap: square"/>
   </g>
   <g id="line2d_22">
    <path d="M 433 708.487291 
L -1 711.674423 
" clip-path="url(#p91e3ea9e1c)" style="fill: none; stroke: #000000; stroke-width: 0.4; stroke-linecap: square"/>
   </g>
   <g id="line2d_23">
    <path d="M 433 682.379943 
L -1 699.633456 
" clip-path="url(#p91e3ea9e1c)" style="fill: none; stroke: #000000; stroke-width: 0.4; stroke-linecap: square"/>
   </g>
   <g id="line2d_24">
    <path d="M 433 640.923913 
L -1 734.331113 
" clip-path="url(#p91e3ea9e1c)" style="fill: none; stroke: #000000; stroke-width: 0.4; stroke-linecap: square"/>
   </g>
   <g id="line2d_25">
    <path d="M 433 642.42125 
L 88.944362 922.6 
" clip-path="url(#p91e3ea9e1c)" style="fill: none; stroke: #000000; stroke-width: 0.4; stroke-linecap: square"/>
   </g>
   <g id="line2d_26">
    <path d="M 433 533.330678 
L 91.903298 922.6 
" clip-path="url(#p91e3ea9e1c)" style="fill: none; stroke: #000000; stroke-width: 0.4; stroke-linecap: square"/>
   </g>
   <g id="line2d_27">
    <path d="M 433 747.605622 
L -1 543.414075 
" clip-path="url(#p91e3ea9e1c)" style="fill: none; stroke: #000000; stroke-width: 0.4; stroke-linecap: square"/>
   </g>
   <g id="line2d_28">
    <path d="M 433 673.322901 
L -1 766.414686 
" clip-path="url(#p91e3ea9e1c)" style="fill: none; stroke: #000000; stroke-width: 0.4; stroke-linecap: square"/>
   </g>
   <g id="line2d_29">
    <path d="M 433 907.474081 
L -1 322.974369 
" clip-path="url(#p91e3ea9e1c)" style="fill: none; stroke: #000000; stroke-width: 0.4; stroke-linecap: square"/>
   </g>
   <g id="line2d_30">
    <path d="M 421.956735 922.6 
L 37.511209 -1 
" clip-path="url(#p91e3ea9e1c)" style="fill: none; stroke: #000000; stroke-width: 0.4; stroke-linecap: square"/>
   </g>
   <g id="line2d_31">
    <path d="M 355.502896 922.6 
L 127.000482 -1 
" clip-path="url(#p91e3ea9e1c)" style="fill: none; stroke: #000000; stroke-width: 0.4; stroke-linecap: square"/>
   </g>
   <g id="line2d_32">
    <path d="M 399.198339 -1 
L 289.308323 922.6 
" clip-path="url(#p91e3ea9e1c)" style="fill: none; stroke: #000000; stroke-width: 0.4; stroke-linecap: square"/>
   </g>
   <g id="line2d_33">
    <path d="M 433 620.797617 
L -1 823.766677 
" clip-path="url(#p91e3ea9e1c)" style="fill: none; stroke: #000000; stroke-width: 0.4; stroke-linecap: square"/>
   </g>
   <g id="line2d_34">
    <path d="M 433 637.316869 
L -1 847.349451 
" clip-path="url(#p91e3ea9e1c)" style="fill: none; stroke: #000000; stroke-width: 0.4; stroke-linecap: square"/>
   </g>
   <g id="line2d_35">
    <path d="M 433 603.601035 
L 26.972964 922.6 
" clip-path="url(#p91e3ea9e1c)" style="fill: none; stroke: #000000; stroke-width: 0.4; stroke-linecap: square"/>
   </g>
   <g id="line2d_36">
    <path d="M 372.425701 922.6 
L 371.279193 -1 
" clip-path="url(#p91e3ea9e1c)" style="fill: none; stroke: #000000; stroke-width: 0.4; stroke-linecap: square"/>
   </g>
   <g id="text_2">
    <!-- dense core (bounding box of the 45 smallest triangles) -->
    <g transform="translate(106.171875 483.54) scale(0.08 -0.08)">
     <defs>
      <path id="DejaVuSans-64" d="M 2906 2969 
L 2906 4863 
L 3481 4863 
L 3481 0 
L 2906 0 
L 2906 525 
Q 2725 213 2448 61 
Q 2172 -91 1784 -91 
Q 1150 -91 751 415 
Q 353 922 353 1747 
Q 353 2572 751 3078 
Q 1150 3584 1784 3584 
Q 2172 3584 2448 3432 
Q 2725 3281 2906 2969 
z
M 947 1747 
Q 947 1113 1208 752 
Q 1469 391 1925 391 
Q 2381 391 2643 752 
Q 2906 1113 2906 1747 
Q 2906 2381 2643 2742 
Q 2381 3103 1925 3103 
Q 1469 3103 1208 2742 
Q 947 2381 947 1747 
z
" transform="scale(0.015625)"/>
      <path id="DejaVuSans-63" d="M 3122 3366 
L 3122 2828 
Q 2878 2963 2633 3030 
Q 2388 3097 2138 3097 
Q 1578 3097 1268 2742 
Q 959 2388 959 1747 
Q 959 1106 1268 751 
Q 1578 397 2138 397 
Q 2388 397 2633 464 
Q 2878 531 3122 666 
L 3122 134 
Q 2881 22 2623 -34 
Q 2366 -91 2075 -91 
Q 1284 -91 818 406 
Q 353 903 353 1747 
Q 353 2603 823 3093 
Q 1294 3584 2113 3584 
Q 2378 3584 2631 3529 
Q 2884 3475 3122 3366 
z
" transform="scale(0.015625)"/>
      <path id="DejaVuSans-62" d="M 3116 1747 
Q 3116 2381 2855 2742 
Q 2594 3103 2138 3103 
Q 1681 3103 1420 2742 
Q 1159 2381 1159 1747 
Q 1159 1113 1420 752 
Q 1681 391 2138 391 
Q 2594 391 2855 752 
Q 3116 1113 3116 1747 
z
M 1159 2969 
Q 1341 3281 1617 3432 
Q 1894 3584 2278 3584 
Q 2916 3584 3314 3078 
Q 3713 2572 3713 1747 
Q 3713 922 3314 415 
Q 2916 -91 2278 -91 
Q 1894 -91 1617 61 
Q 1341 213 1159 525 
L 1159 0 
L 581 0 
L 581 4863 
L 1159 4863 
L 1159 2969 
z
" transform="scale(0.015625)"/>
      <path id="DejaVuSans-78" d="M 3513 3500 
L 2247 1797 
L 3578 0 
L 2900 0 
L 1881 1375 
L 863 0 
L 184 0 
L 1544 1831 
L 300 3500 
L 978 3500 
L 1906 2253 
L 2834 3500 
L 3513 3500 
z
" transform="scale(0.015625)"/>
      <path id="DejaVuSans-66" d="M 2375 4863 
L 2375 4384 
L 1825 4384 
Q 1516 4384 1395 4259 
Q 1275 4134 1275 3809 
L 1275 3500 
L 2222 3500 
L 2222 3053 
L 1275 3053 
L 1275 0 
L 697 0 
L 697 3053 
L 147 3053 
L 147 3500 
L 697 3500 
L 697 3744 
Q 697 4328 969 4595 
Q 1241 4863 1831 4863 
L 2375 4863 
z
" transform="scale(0.015625)"/>
      <path id="DejaVuSans-68" d="M 3513 2113 
L 3513 0 
L 2938 0 
L 2938 2094 
Q 2938 2591 2744 2837 
Q 2550 3084 2163 3084 
Q 1697 3084 1428 2787 
Q 1159 2491 1159 1978 
L 1159 0 
L 581 0 
L 581 4863 
L 1159 4863 
L 1159 2956 
Q 1366 3272 1645 3428 
Q 1925 3584 2291 3584 
Q 2894 3584 3203 3211 
Q 3513 2838 3513 2113 
z
" transform="scale(0.015625)"/>
      <path id="DejaVuSans-34" d="M 2419 4116 
L 825 1625 
L 2419 1625 
L 2419 4116 
z
M 2253 4666 
L 3047 4666 
L 3047 1625 
L 3713 1625 
L 3713 1100 
L 3047 1100 
L 3047 0 
L 2419 0 
L 2419 1100 
L 313 1100 
L 313 1709 
L 2253 4666 
z
" transform="scale(0.015625)"/>
      <path id="DejaVuSans-35" d="M 691 4666 
L 3169 4666 
L 3169 4134 
L 1269 4134 
L 1269 2991 
Q 1406 3038 1543 3061 
Q 1681 3084 1819 3084 
Q 2600 3084 3056 2656 
Q 3513 2228 3513 1497 
Q 3513 744 3044 326 
Q 2575 -91 1722 -91 
Q 1428 -91 1123 -41 
Q 819 9 494 109 
L 494 744 
Q 775 591 1075 516 
Q 1375 441 1709 441 
Q 2250 441 2565 725 
Q 2881 1009 2881 1497 
Q 2881 1984 2565 2268 
Q 2250 2553 1709 2553 
Q 1456 2553 1204 2497 
Q 953 2441 691 2322 
L 691 4666 
z
" transform="scale(0.015625)"/>
      <path id="DejaVuSans-6d" d="M 3328 2828 
Q 3544 3216 3844 3400 
Q 4144 3584 4550 3584 
Q 5097 3584 5394 3201 
Q 5691 2819 5691 2113 
L 5691 0 
L 5113 0 
L 5113 2094 
Q 5113 2597 4934 2840 
Q 4756 3084 4391 3084 
Q 3944 3084 3684 2787 
Q 3425 2491 3425 1978 
L 3425 0 
L 2847 0 
L 2847 2094 
Q 2847 2600 2669 2842 
Q 2491 3084 2119 3084 
Q 1678 3084 1418 2786 
Q 1159 2488 1159 1978 
L 1159 0 
L 581 0 
L 581 3500 
L 1159 3500 
L 1159 2956 
Q 1356 3278 1631 3431 
Q 1906 3584 2284 3584 
Q 2666 3584 2933 3390 
Q 3200 3197 3328 2828 
z
" transform="scale(0.015625)"/>
     </defs>
     <use xlink:href="#DejaVuSans-64"/>
     <use xlink:href="#DejaVuSans-65" transform="translate(63.476562 0)"/>
     <use xlink:href="#DejaVuSans-6e" transform="translate(125 0)"/>
     <use xlink:href="#DejaVuSans-73" transform="translate(188.378906 0)"/>
     <use xlink:href="#DejaVuSans-65" transform="translate(240.478516 0)"/>
     <use xlink:href="#DejaVuSans-20" transform="translate(302.001953 0)"/>
     <use xlink:href="#DejaVuSans-63" transform="translate(333.789062 0)"/>
     <use xlink:href="#DejaVuSans-6f" transform="translate(388.769531 0)"/>
     <use xlink:href="#DejaVuSans-72" transform="translate(449.951172 0)"/>
     <use xlink:href="#DejaVuSans-65" transform="translate(488.814453 0)"/>
     <use xlink:href="#DejaVuSans-20" transform="translate(550.337891 0)"/>
     <use xlink:href="#DejaVuSans-28" transform="translate(582.125 0)"/>
     <use xlink:href="#DejaVuSans-62" transform="translate(621.138672 0)"/>
     <use xlink:href="#DejaVuSans-6f" transform="translate(684.615234 0)"/>
     <use xlink:href="#DejaVuSans-75" transform="translate(745.796875 0)"/>
     <use xlink:href="#DejaVuSans-6e" transform="translate(809.175781 0)"/>
     <use xlink:href="#DejaVuSans-64" transform="translate(872.554688 0)"/>
     <use xlink:href="#DejaVuSans-69" transform="translate(936.03125 0)"/>
     <use xlink:href="#DejaVuSans-6e" transform="translate(963.814453 0)"/>
     <use xlink:href="#DejaVuSans-67" transform="translate(1027.193359 0)"/>
     <use xlink:href="#DejaVuSans-20" transform="translate(1090.669922 0)"/>
     <use xlink:href="#DejaVuSans-62" transform="translate(1122.457031 0)"/>
     <use xlink:href="#DejaVuSans-6f" transform="translate(1185.933594 0)"/>
     <use xlink:href="#DejaVuSans-78" transform="translate(1243.990234 0)"/>
     <use xlink:href="#DejaVuSans-20" transform="translate(1303.169922 0)"/>
     <use xlink:href="#DejaVuSans-6f" transform="translate(1334.957031 0)"/>
     <use xlink:href="#DejaVuSans-66" transform="translate(1396.138672 0)"/>
     <use xlink:href="#DejaVuSans-20" transform="translate(1431.34375 0)"/>
     <use xlink:href="#DejaVuSans-74" transform="translate(1463.130859 0)"/>
     <use xlink:href="#DejaVuSans-68" transform="translate(1502.339844 0)"/>
     <use xlink:href="#DejaVuSans-65" transform="translate(1565.71875 0)"/>
     <use xlink:href="#DejaVuSans-20" transform="translate(1627.242188 0)"/>
     <use xlink:href="#DejaVuSans-34" transform="translate(1659.029297 0)"/>
     <use xlink:href="#DejaVuSans-35" transform="translate(1722.652344 0)"/>
     <use xlink:href="#DejaVuSans-20" transform="translate(1786.275391 0)"/>
     <use xlink:href="#DejaVuSans-73" transform="translate(1818.0625 0)"/>
     <use xlink:href="#DejaVuSans-6d" transform="translate(1870.162109 0)"/>
     <use xlink:href="#DejaVuSans-61" transform="translate(1967.574219 0)"/>
     <use xlink:href="#DejaVuSans-6c" transform="translate(2028.853516 0)"/>
     <use xlink:href="#DejaVuSans-6c" transform="translate(2056.636719 0)"/>
     <use xlink:href="#DejaVuSans-65" transform="translate(2084.419922 0)"/>
     <use xlink:href="#DejaVuSans-73" transform="translate(2145.943359 0)"/>
     <use xlink:href="#DejaVuSans-74" transform="translate(2198.042969 0)"/>
     <use xlink:href="#DejaVuSans-20" transform="translate(2237.251953 0)"/>
     <use xlink:href="#DejaVuSans-74" transform="translate(2269.039062 0)"/>
     <use xlink:href="#DejaVuSans-72" transform="translate(2308.248047 0)"/>
     <use xlink:href="#DejaVuSans-69" transform="translate(2349.361328 0)"/>
     <use xlink:href="#DejaVuSans-61" transform="translate(2377.144531 0)"/>
     <use xlink:href="#DejaVuSans-6e" transform="translate(2438.423828 0)"/>
     <use xlink:href="#DejaVuSans-67" transform="translate(2501.802734 0)"/>
     <use xlink:href="#DejaVuSans-6c" transform="translate(2565.279297 0)"/>
     <use xlink:href="#DejaVuSans-65" transform="translate(2593.0625 0)"/>
     <use xlink:href="#DejaVuSans-73" transform="translate(2654.585938 0)"/>
     <use xlink:href="#DejaVuSans-29" transform="translate(2706.685547 0)"/>
    </g>
   </g>
  </g>
 </g>
 <defs>
  <clipPath id="p136025ac5a">
   <rect x="10.8" y="34.86" width="410.4" height="410.4"/>
  </clipPath>
  <clipPath id="p91e3ea9e1c">
   <rect x="10.8" y="489.54" width="410.4" height="410.4"/>
  </clipPath>
 </defs>
</svg>
